Coordinates
version=1
nRows=32
nColumns=12
inDegrees=yes

Units are S.I. units (second, meters, Newtons, ...)
Angles are in degrees

endheader
time	SC_y	SC_z	SC_x	AC_y	AC_z	AC_x	GH_y	GH_z	GH_yy	EL_x	PS_y
       0.0              -21.24         -2.805          5.266          68.29          4.281          15.71         -43.86          73.54         -86.79          114.8          108.8
   0.01364              -21.24         -2.804          5.271          68.28           4.28          15.71         -43.85          73.53         -86.77          114.8          108.8
   0.02728              -21.25         -2.804          5.276          68.28           4.28           15.7         -43.85          73.53         -86.74          114.8          108.8
   0.04091              -21.25         -2.803          5.281          68.27          4.279           15.7         -43.84          73.52         -86.71          114.8          108.8
   0.05455              -21.26         -2.802          5.287          68.27          4.278          15.69         -43.83          73.52         -86.69          114.8          108.8
   0.06819              -21.26         -2.801          5.293          68.26          4.277          15.69         -43.83          73.51         -86.66          114.8          108.8
   0.08183              -21.27           -2.8          5.299          68.26          4.276          15.68         -43.82           73.5         -86.62          114.8          108.8
   0.09547              -21.28           -2.8          5.306          68.25          4.274          15.68         -43.81           73.5         -86.59          114.8          108.8
    0.1091              -21.28         -2.799          5.314          68.24          4.273          15.67         -43.81          73.49         -86.55          114.8          108.7
    0.1227              -21.29         -2.798          5.322          68.23          4.272          15.67          -43.8          73.48         -86.51          114.8          108.7
    0.1364               -21.3         -2.796           5.33          68.23           4.27          15.66         -43.79          73.47         -86.47          114.8          108.7
      0.15              -21.31         -2.795          5.339          68.22          4.269          15.65         -43.78          73.46         -86.43          114.8          108.7
    0.1637              -21.32         -2.794          5.349          68.21          4.267          15.64         -43.77          73.45         -86.38          114.8          108.7
    0.1773              -21.33         -2.793           5.36           68.2          4.266          15.64         -43.76          73.44         -86.32          114.8          108.7
    0.1909              -21.34         -2.791          5.372          68.19          4.264          15.63         -43.75          73.43         -86.27          114.7          108.6
    0.2046              -21.35         -2.789          5.384          68.17          4.262          15.62         -43.73          73.42          -86.2          114.7          108.6
    0.2182              -21.36         -2.788          5.398          68.16          4.259          15.61         -43.72           73.4         -86.14          114.7          108.6
    0.2318              -21.38         -2.786          5.413          68.15          4.257          15.59         -43.71          73.39         -86.06          114.7          108.5
    0.2455              -21.39         -2.784          5.429          68.13          4.254          15.58         -43.69          73.37         -85.98          114.7          108.5
    0.2591              -21.41         -2.781          5.447          68.11          4.251          15.57         -43.67          73.35         -85.89          114.7          108.5
    0.2728              -21.43         -2.779          5.466          68.09          4.248          15.55         -43.65          73.33          -85.8          114.7          108.4
    0.2864              -21.45         -2.776          5.488          68.07          4.244          15.54         -43.63          73.31         -85.69          114.7          108.4
       0.3              -21.47         -2.773          5.511          68.05           4.24          15.52          -43.6          73.29         -85.57          114.7          108.3
    0.3137               -21.5         -2.769          5.538          68.02          4.236           15.5         -43.58          73.26         -85.44          114.6          108.3
    0.3273              -21.52         -2.765          5.567           68.0          4.231          15.47         -43.55          73.23          -85.3          114.6          108.2
    0.3409              -21.55         -2.761          5.599          67.96          4.226          15.45         -43.51           73.2         -85.14          114.6          108.2
    0.3546              -21.59         -2.756          5.636          67.93           4.22          15.42         -43.48          73.16         -84.96          114.6          108.1
    0.3682              -21.63         -2.751          5.677          67.89          4.213          15.39         -43.43          73.12         -84.75          114.5          108.0
    0.3819              -21.67         -2.745          5.724          67.84          4.205          15.35         -43.39          73.07         -84.52          114.5          107.9
    0.3955              -21.72         -2.738          5.776          67.79          4.196          15.31         -43.33          73.02         -84.26          114.5          107.8
    0.4091              -21.78          -2.73          5.836          67.73          4.186          15.26         -43.27          72.95         -83.96          114.4          107.7
    0.4228              -21.84         -2.721          5.905          67.67          4.175          15.21          -43.2          72.88         -83.62          114.4          107.5
